<svg xmlns="http://www.w3.org/2000/svg" viewBox="0 0 64 64" id="Location"><path fill="#c6c5b9" d="M46.5 25.828c0 6.605-9.536 21.114-13.402 26.724-.871 1.265-2.325 1.264-3.197 0C26.036 46.941 16.5 32.432 16.5 25.827c0-8.284 6.716-15 15-15 8.284 0 15 6.716 15 15z" class="colorff5a5c svgShape"></path><path fill="#8f8f93" d="M39.5 25.828a8 8 0 0 1-8 8 8 8 0 0 1-8-8 8 8 0 0 1 8-8 8 8 0 0 1 8 8z" class="color54c972 svgShape"></path><path d="M31.5 1005.69c-4.688 0-8.5 3.811-8.5 8.5 0 4.688 3.812 8.5 8.5 8.5 4.688 0 8.5-3.812 8.5-8.5 0-4.689-3.812-8.5-8.5-8.5zm0 1c4.148 0 7.5 3.351 7.5 7.5 0 4.147-3.352 7.5-7.5 7.5a7.492 7.492 0 0 1-7.5-7.5c0-4.149 3.352-7.5 7.5-7.5z" color="#000" font-family="sans-serif" font-weight="400" overflow="visible" style="line-height:normal;text-indent:0;text-align:start;text-decoration-line:none;text-decoration-style:solid;text-decoration-color:#000;text-transform:none;block-progression:tb;isolation:auto;mix-blend-mode:normal" transform="translate(0 -988.362)" fill="#393d3f" class="color000000 svgShape"></path><path d="M31.5 998.69c-8.554 0-15.5 6.945-15.5 15.5 0 3.543 2.434 8.8 5.314 13.978 2.88 5.178 6.238 10.217 8.176 13.03.51.739 1.247 1.163 2.01 1.163.763 0 1.5-.424 2.01-1.164 1.938-2.812 5.295-7.851 8.176-13.029 2.88-5.178 5.314-10.435 5.314-13.978 0-8.555-6.946-15.5-15.5-15.5zm0 1c8.014 0 14.5 6.485 14.5 14.5 0 3.061-2.334 8.361-5.188 13.492-2.853 5.13-6.197 10.15-8.124 12.947-.363.526-.788.732-1.188.732-.4 0-.825-.207-1.188-.732-1.927-2.797-5.27-7.817-8.125-12.947-2.853-5.13-5.187-10.43-5.187-13.493 0-8.014 6.486-14.5 14.5-14.5z" color="#000" font-family="sans-serif" font-weight="400" overflow="visible" style="line-height:normal;text-indent:0;text-align:start;text-decoration-line:none;text-decoration-style:solid;text-decoration-color:#000;text-transform:none;block-progression:tb;isolation:auto;mix-blend-mode:normal" transform="translate(0 -988.362)" fill="#393d3f" class="color000000 svgShape"></path></svg>