<svg xmlns="http://www.w3.org/2000/svg" width="24" height="24" enable-background="new 0 0 24 24" viewBox="0 0 24 24" id="icon-location"><path fill="#231F20" d="M12,20.042L12,20.042c-0.329,0-0.637-0.162-0.823-0.433c-0.854-1.239-5.136-7.496-5.555-8.959
		C5.234,9.298,5.524,7.884,6.44,6.669C7.662,5.048,9.896,3.958,12,3.958c2.138,0,4.319,1.063,5.56,2.707
		c0.916,1.215,1.207,2.631,0.818,3.985c-0.419,1.464-4.7,7.72-5.555,8.959C12.637,19.88,12.329,20.042,12,20.042z M12,5.958
		c-1.483,0-3.113,0.787-3.963,1.915C7.663,8.369,7.274,9.158,7.544,10.1c0.195,0.679,2.293,3.979,4.456,7.17
		c2.163-3.19,4.261-6.49,4.456-7.17c0.27-0.944-0.119-1.734-0.494-2.231C15.114,6.744,13.484,5.958,12,5.958z"></path><circle cx="12" cy="10.001" r="1.999" fill="#231F20"></circle></svg>