<svg xmlns="http://www.w3.org/2000/svg" width="72" height="72" id="fog"><path fill="#BFBFBF" d="M40.714 25.479c-3.586 0-6.83 1.837-8.681 4.801a7.51 7.51 0 0 0-7.735 3.85 5.936 5.936 0 0 0-5.62 5.921c0 2.936 2.18 5.25 5.554 5.893 2.205.421 5.395.577 11.768.577 6.022 0 9.859-.302 12.019-.555 3.172-.372 5.303-2.591 5.303-5.522a5.493 5.493 0 0 0-2.359-4.52l.002-.194c-.001-5.653-4.599-10.251-10.251-10.251z"></path><g fill="#FFF"><path d="M48.876 36.838a7.95 7.95 0 0 0 .088-1.109 8.2 8.2 0 0 0-.05-.891h-22.7a5.51 5.51 0 0 0-.626 1.422 3.872 3.872 0 0 0-.981-.138c-.839 0-1.613.268-2.252.716h26.521zM51.321 40.443c0-.58-.143-1.125-.392-1.605h-30.04c-.125.384-.21.786-.21 1.212 0 .276.03.539.083.788h30.523c.014-.131.036-.257.036-.395zM22.036 42.838c.688.562 1.578.952 2.571 1.141 2.184.417 5.518.542 11.393.542s9.655-.292 11.786-.542c1.072-.126 1.958-.526 2.577-1.141H22.036zM36.23 28.838h9.016a8.209 8.209 0 0 0-4.531-1.359 8.178 8.178 0 0 0-4.944 1.671c.156-.1.294-.219.459-.312zM48.433 32.838a8.216 8.216 0 0 0-1.086-2h-13.25a8.176 8.176 0 0 0-1.03 1.803 5.488 5.488 0 0 0-2.174-.448c-.932 0-1.806.236-2.574.645h20.114z"></path></g></svg>