<svg xmlns="http://www.w3.org/2000/svg" width="72" height="72" viewBox="0 0 72 72" id="rain"><path fill="#FFAA45" d="M39.907 37.572l-2 6h5l-2 6 8-9h-4l2-3z"></path><path fill="#45ABFF" d="M24.979 50.573a1.001 1.001 0 01-.937-1.351l3-8a1 1 0 011.873.703l-3 8a1 1 0 01-.936.648zM29.385 54.823a1.001 1.001 0 01-.937-1.351l4.594-12.25a1.001 1.001 0 011.873.703l-4.594 12.25a1 1 0 01-.936.648zM35.901 53.448a1.001 1.001 0 01-.937-1.351l1.828-4.875a1.001 1.001 0 011.873.703L36.837 52.8a1 1 0 01-.936.648z"></path><path fill="#868686" d="M40.714 17.177c-3.586 0-6.83 1.837-8.681 4.801a7.51 7.51 0 0 0-7.735 3.85 5.936 5.936 0 0 0-5.62 5.921c0 2.936 2.18 5.25 5.554 5.893 2.205.421 5.395.577 11.768.577 6.021 0 9.859-.302 12.019-.555 3.172-.372 5.303-2.591 5.303-5.522a5.493 5.493 0 0 0-2.359-4.52l.002-.194c-.001-5.653-4.599-10.251-10.251-10.251z"></path><path fill="#BFBFBF" d="M48.843 28.785a8.32 8.32 0 0 0 .121-1.357 8.248 8.248 0 1 0-15.897-3.088 5.498 5.498 0 0 0-7.479 3.619 3.872 3.872 0 0 0-.981-.138 3.929 3.929 0 0 0-3.929 3.929c0 2.17 1.744 3.512 3.929 3.929 2.185.417 5.518.542 11.393.542s9.655-.292 11.786-.542c2.131-.25 3.536-1.583 3.536-3.536a3.526 3.526 0 0 0-2.479-3.358z"></path><path fill="#E0E0E0" d="M24.607 29.854c.341 0 .666.057.981.138a5.497 5.497 0 0 1 7.479-3.619 8.247 8.247 0 0 1 7.647-5.162c4.203 0 7.664 3.144 8.177 7.207a7.72 7.72 0 0 0 .073-.992 8.248 8.248 0 1 0-15.897-3.088 5.498 5.498 0 0 0-7.479 3.619 3.872 3.872 0 0 0-.981-.138 3.929 3.929 0 0 0-3.929 3.929c0 .36.064.689.154 1.004.456-1.666 1.964-2.898 3.775-2.898z"></path></svg>