<svg xmlns="http://www.w3.org/2000/svg" width="72" height="72" viewBox="0 0 72 72" id="drizzle"><path fill="#FFAA45" d="M25.268 18.275a.999.999 0 01-.924-.618l-1.217-2.937a1.001 1.001 0 011.848-.766l1.217 2.937a1.001 1.001 0 01-.924 1.384zM16.551 33.447a1 1 0 01-.383-1.924l2.937-1.217a1.001 1.001 0 01.766 1.848l-2.937 1.217a1.021 1.021 0 01-.383.076zM39.224 24.055a1 1 0 01-.383-1.925l2.937-1.216a1.001 1.001 0 01.766 1.848l-2.937 1.216a.996.996 0 01-.383.077zM33.443 18.275a1 1 0 01-.924-1.384l1.217-2.937a1.001 1.001 0 011.848.766l-1.217 2.937a1 1 0 01-.924.618zM19.487 24.055a.996.996 0 01-.383-.077l-2.937-1.216a1 1 0 01.766-1.848l2.937 1.216a1 1 0 01-.383 1.925z"></path><circle cx="29.356" cy="27.142" r="8.291" fill="#FFAA45"></circle><path fill="#FFDA69" d="M29.353 20.85a6.276 6.276 0 0 1 5.815 3.885 6.25 6.25 0 0 1 0 4.815 6.25 6.25 0 0 1-3.404 3.404 6.256 6.256 0 0 1-2.404.481 6.276 6.276 0 0 1-5.815-3.885 6.25 6.25 0 0 1 0-4.815 6.25 6.25 0 0 1 3.404-3.404 6.252 6.252 0 0 1 2.404-.481"></path><path fill="#45ABFF" d="M35.949 58.663a1.001 1.001 0 01-.937-1.351l.751-2a1.001 1.001 0 011.873.703l-.751 2a1 1 0 01-.936.648zM38.2 52.663a1 1 0 01-.937-1.35l.749-2a1 1 0 011.873.701l-.749 2a1 1 0 01-.936.649zM41.753 56.663a1.001 1.001 0 01-.937-1.351l.75-2a1.001 1.001 0 011.873.703l-.75 2a1 1 0 01-.936.648z"></path><path fill="#868686" d="M43.842 25.643c-3.586 0-6.83 1.837-8.681 4.801a7.51 7.51 0 0 0-7.735 3.851 5.936 5.936 0 0 0-5.62 5.921c0 2.936 2.18 5.25 5.554 5.893 2.206.421 5.395.577 11.768.577 6.022 0 9.859-.302 12.019-.555 3.172-.372 5.303-2.591 5.303-5.522a5.493 5.493 0 0 0-2.359-4.52l.002-.194c-.001-5.654-4.599-10.252-10.251-10.252z"></path><path fill="#E6E6E6" d="M51.971 37.25a8.32 8.32 0 0 0 .121-1.357 8.248 8.248 0 1 0-15.897-3.088 5.498 5.498 0 0 0-7.479 3.619 3.872 3.872 0 0 0-.981-.138 3.929 3.929 0 0 0-3.929 3.929c0 2.17 1.744 3.512 3.929 3.929s5.518.542 11.393.542 9.655-.292 11.786-.542c2.131-.25 3.536-1.583 3.536-3.536a3.525 3.525 0 0 0-2.479-3.358z"></path><path fill="#FFF" d="M27.735 38.32c.341 0 .666.057.981.138a5.497 5.497 0 0 1 7.479-3.619 8.247 8.247 0 0 1 7.647-5.162c4.203 0 7.664 3.144 8.177 7.207a7.72 7.72 0 0 0 .073-.992 8.248 8.248 0 1 0-15.897-3.088 5.498 5.498 0 0 0-7.479 3.619 3.872 3.872 0 0 0-.981-.138 3.929 3.929 0 0 0-3.929 3.929c0 .36.064.689.154 1.004.456-1.666 1.964-2.898 3.775-2.898z"></path></svg>