<svg xmlns="http://www.w3.org/2000/svg" enable-background="new 0 0 32 32" viewBox="0 0 32 32" id="Umbrella"><g fill="#536a7a" class="color000000 svgShape"><path fill="#8f8f93" d="M29,22l-1.271-0.508c-2.372-0.949-5.037-0.838-7.322,0.305L20,22l0,0c-2.518-1.259-5.482-1.259-8,0l0,0
			l-0.407-0.204c-2.285-1.143-4.95-1.253-7.322-0.305L3,22C3,14.82,8.82,9,16,9S29,14.82,29,22z" class="colore5646e svgShape"></path><path fill="#c6c5b9" d="M20,20.4V22c-1.26-0.63-2.63-0.94-4-0.94s-2.74,0.31-4,0.94v-1.6c0-2.07,0.35-4.11,1.03-6.04
			C13.7,12.44,14.7,10.62,16,9C18.59,12.24,20,16.26,20,20.4z" class="colorf7f3f1 svgShape"></path><path fill="#393d3f" d="M17 8.051V7c0-.553-.448-1-1-1s-1 .447-1 1v1.051C7.747 8.567 2 14.618 2 22c0 .332.165.643.44.828C2.608 22.941 2.803 23 3 23c.126 0 .252-.023.373-.072l1.27-.51c2.106-.844 4.475-.746 6.509.28l.41.2c.279.137.607.135.886-.004.808-.404 1.673-.657 2.553-.767V28c0 2.206 1.794 4 4 4 2.206 0 4-1.794 4-4v-1c0-.553-.447-1-1-1s-1 .447-1 1v1c0 1.103-.897 2-2 2s-2-.897-2-2v-5.872c.88.111 1.745.363 2.553.767.311.154.678.14.973-.044C20.82 22.668 21 22.347 21 22v-1.6c0-3.615-1.048-7.166-2.958-10.219 5.157.889 9.201 5.074 9.863 10.304-1.273-.479-2.607-.688-3.953-.624-.552.026-.978.495-.951 1.047.027.552.491.984 1.047.951 1.136-.054 2.247.134 3.31.559l1.27.51C28.748 22.977 28.874 23 29 23c.197 0 .393-.059.561-.172C29.835 22.643 30 22.332 30 22 30 14.618 24.253 8.567 17 8.051zM7.589 19.85c-1.182 0-2.366.211-3.494.636.661-5.228 4.704-9.408 9.859-10.298C12.046 13.237 11 16.788 11 20.403v.055C9.902 20.055 8.748 19.85 7.589 19.85zM19 20.521c-1.948-.612-4.052-.607-6 .006v-.123c0-3.458 1.058-6.855 2.994-9.705C17.933 13.551 19 16.944 19 20.4V20.521zM13 4c.552 0 1-.447 1-1V1c0-.553-.448-1-1-1s-1 .447-1 1v2C12 3.553 12.448 4 13 4zM8 7c.552 0 1-.447 1-1V4c0-.553-.448-1-1-1S7 3.447 7 4v2C7 6.553 7.448 7 8 7zM19 4c.553 0 1-.447 1-1V1c0-.553-.447-1-1-1s-1 .447-1 1v2C18 3.553 18.447 4 19 4zM24 7c.553 0 1-.447 1-1V4c0-.553-.447-1-1-1s-1 .447-1 1v2C23 6.553 23.447 7 24 7z" class="color384051 svgShape"></path></g></svg>