<svg xmlns="http://www.w3.org/2000/svg" enable-background="new 0 0 2000 2000" viewBox="0 0 2000 2000" id="notification"><path fill="#150E00" d="M1414.18,1206.91c-12.89-7.19-25.76-10.39-34.62-11.82v-264.8c0-76.06-22.42-149.44-64.83-212.22
	c-41.38-61.25-99.12-108.8-166.98-137.5c-20.61-8.71-42.06-15.61-63.9-20.53v-29.4c0-22.4-8.72-43.46-24.56-59.29
	c-15.84-15.83-36.9-24.55-59.29-24.55c-46.23,0-83.84,37.61-83.84,83.85v29.4c-39.43,8.89-76.98,23.97-111.74,44.91
	c-36.73,22.12-69.26,50.11-96.69,83.17c-27.65,33.33-49.21,70.75-64.08,111.21c-15.4,41.88-23.2,85.95-23.2,130.97v264.43
	c-13.36,1.73-35.42,7.25-53.33,24.61c-18.44,17.87-27.8,43.45-27.8,76.02c0,55.92,45.49,101.41,101.41,101.41h231.79v28.97
	c0,34.05,13.26,66.07,37.34,90.14c24.08,24.08,56.09,37.34,90.14,37.34s66.07-13.26,90.14-37.34
	c24.08-24.08,37.34-56.09,37.34-90.14v-28.97h231.79c55.92,0,101.41-45.49,101.41-101.4
	C1460.69,1243.7,1435.39,1218.74,1414.18,1206.91z M939.33,530.63c0-33.45,27.21-60.67,60.67-60.67c16.2,0,31.44,6.31,42.9,17.77
	c11.46,11.46,17.77,26.7,17.77,42.9v24.92c-4.54-0.73-9.09-1.37-13.66-1.93c-0.09-0.01-0.18-0.02-0.27-0.03
	c-1.49-0.18-2.98-0.36-4.47-0.52c-0.04,0-0.07-0.01-0.1-0.01c-1.44-0.16-2.89-0.31-4.33-0.45c-0.62-0.06-1.23-0.12-1.85-0.17
	c-0.72-0.07-1.45-0.14-2.17-0.2c-0.91-0.08-1.81-0.16-2.72-0.23c-0.37-0.03-0.75-0.06-1.12-0.09c-9.96-0.78-19.97-1.18-29.98-1.18
	c-10.14,0-20.28,0.41-30.37,1.21c-0.07,0.01-0.14,0.01-0.22,0.02c-1.19,0.09-2.38,0.19-3.56,0.3c-0.17,0.02-0.34,0.03-0.52,0.05
	c-3.05,0.28-6.1,0.59-9.14,0.94c-0.79,0.09-1.59,0.18-2.38,0.28c-0.58,0.07-1.15,0.14-1.73,0.21c-0.92,0.12-1.84,0.23-2.76,0.36
	c-0.48,0.06-0.96,0.13-1.45,0.19c-1.11,0.15-2.22,0.31-3.33,0.47c-0.3,0.04-0.6,0.09-0.89,0.13c-1.44,0.21-2.88,0.43-4.32,0.66
	V530.63z M1104.31,1425.73c0,57.51-46.79,104.31-104.31,104.31s-104.31-46.79-104.31-104.31v-28.97h208.61V1425.73z
	 M1359.27,1373.58h-231.79H872.51h-231.8c-43.14,0-78.23-35.09-78.23-78.23c0-25.95,6.92-45.87,20.58-59.21
	c18.98-18.54,45.67-19.02,48.38-19.02c0.14,0,0.21,0,0.21-0.01l11.06,0.01v0h95.03c6.4,0,11.59-5.19,11.59-11.59
	s-5.19-11.59-11.59-11.59h-94.14V930.27c0-42.28,7.33-83.65,21.78-122.97c13.97-37.99,34.21-73.12,60.17-104.42
	c25.76-31.05,56.31-57.33,90.81-78.11c34.83-20.98,72.64-35.7,112.39-43.76l1.25-0.25c22.88-4.55,46.43-6.87,69.99-6.87
	c22.74,0,45.47,2.16,67.61,6.41c0.79,0.15,1.59,0.3,2.38,0.46c23.51,4.68,46.63,11.79,68.72,21.13
	c63.72,26.95,117.94,71.6,156.81,129.13c39.81,58.93,60.86,127.83,60.86,199.25v263.66H895.69c-6.4,0-11.59,5.19-11.59,11.59
	s5.19,11.59,11.59,11.59h472.13c0.18,0.01,18.29,0.41,35.77,10.42c22.5,12.89,33.91,35.7,33.91,67.8
	C1437.5,1338.49,1402.41,1373.58,1359.27,1373.58z"></path><path fill="#F89F21" d="M944.55 554.75c1.11-.16 2.22-.32 3.33-.47.48-.07.96-.13 1.45-.19.92-.12 1.84-.24 2.76-.36.58-.07 1.15-.15 1.73-.21.79-.1 1.59-.19 2.38-.28 3.04-.35 6.09-.66 9.14-.94.17-.02.34-.03.52-.05 1.19-.11 2.38-.2 3.56-.3.07-.01.14-.01.22-.02 10.09-.8 20.23-1.21 30.37-1.21 10.01 0 20.02.4 29.98 1.18.37.03.75.06 1.12.09.91.07 1.81.15 2.72.23.72.06 1.45.13 2.17.2.62.06 1.23.11 1.85.17 1.45.14 2.89.29 4.33.45.03 0 .07.01.1.01 1.49.16 2.98.34 4.47.52.09.01.18.02.27.03 4.57.56 9.13 1.2 13.66 1.93v-24.92c0-16.2-6.31-31.44-17.77-42.9-11.46-11.46-26.7-17.77-42.9-17.77-33.45 0-60.67 27.21-60.67 60.67v24.92c1.44-.23 2.88-.45 4.32-.66C943.96 554.84 944.25 554.8 944.55 554.75zM895.7 1425.73c0 57.51 46.79 104.31 104.31 104.31s104.31-46.79 104.31-104.31v-28.97H895.7V1425.73z"></path><path fill="#FEDF82" d="M1403.6,1227.55c-17.48-10.01-35.59-10.42-35.77-10.42H895.7c-6.4,0-11.59-5.19-11.59-11.59
		s5.19-11.59,11.59-11.59h460.68V930.28c0-71.42-21.05-140.31-60.86-199.25c-38.87-57.53-93.09-102.18-156.81-129.13
		c-22.09-9.34-45.21-16.45-68.72-21.13c-0.79-0.16-1.59-0.31-2.38-0.46c-22.14-4.25-44.87-6.41-67.61-6.41
		c-23.56,0-47.11,2.31-69.99,6.87l-1.25,0.25c-39.75,8.06-77.56,22.78-112.39,43.76c-34.5,20.78-65.05,47.06-90.81,78.11
		c-25.96,31.3-46.21,66.43-60.17,104.42c-14.45,39.31-21.78,80.69-21.78,122.97v263.67h94.14c6.4,0,11.59,5.19,11.59,11.59
		s-5.19,11.59-11.59,11.59h-95.03v0l-11.06-0.01c0,0.01-0.08,0.01-0.21,0.01c-2.71,0-29.4,0.49-48.38,19.02
		c-13.65,13.34-20.58,33.26-20.58,59.21c0,43.14,35.09,78.23,78.23,78.23h231.8h254.97h231.79c43.14,0,78.23-35.09,78.23-78.23
		C1437.51,1263.25,1426.1,1240.44,1403.6,1227.55z"></path></svg>