<svg xmlns="http://www.w3.org/2000/svg" width="72" height="72" viewBox="0 0 72 72" id="snow"><path fill="#FFAA45" d="M25.268 18.88a.999.999 0 01-.924-.618l-1.217-2.937a1.001 1.001 0 011.848-.766l1.217 2.937a1.001 1.001 0 01-.924 1.384zM16.55 34.052a1 1 0 01-.383-1.924l2.937-1.217a1 1 0 01.766 1.848l-2.937 1.217a.995.995 0 01-.383.076zM39.224 24.661a1 1 0 01-.383-1.925l2.937-1.216a1.001 1.001 0 01.766 1.848l-2.937 1.216a.996.996 0 01-.383.077zM33.443 18.88a1 1 0 01-.924-1.384l1.217-2.937a1 1 0 011.848.766l-1.217 2.937a.999.999 0 01-.924.618zM19.487 24.661a.996.996 0 01-.383-.077l-2.937-1.216a1 1 0 01.766-1.848l2.937 1.216a1 1 0 01-.383 1.925z"></path><circle cx="29.356" cy="27.748" r="8.291" fill="#FFAA45"></circle><path fill="#FFDA69" d="M29.353 21.455a6.274 6.274 0 0 1 5.814 3.885 6.25 6.25 0 0 1 0 4.815 6.249 6.249 0 0 1-3.405 3.404 6.256 6.256 0 0 1-2.404.481 6.276 6.276 0 0 1-5.815-3.885 6.298 6.298 0 0 1 5.81-8.7"></path><path fill="#45ABFF" d="M33.701 48.557c-.955 0-1.733.769-1.75 1.719a1.753 1.753 0 00-.847-.22c-.625 0-1.206.336-1.517.876-.477.826-.2 1.884.615 2.374a1.751 1.751 0 00.902 3.25c.296 0 .589-.076.848-.22.016.951.795 1.72 1.75 1.72s1.733-.769 1.75-1.719a1.754 1.754 0 002.364-.657c.477-.827.2-1.885-.615-2.374a1.751 1.751 0 00-.903-3.25c-.296 0-.588.076-.847.22a1.753 1.753 0 00-1.75-1.719zM45.913 48.557c-.955 0-1.733.769-1.75 1.72a1.749 1.749 0 00-1.75 3.03 1.751 1.751 0 00.902 3.25c.296 0 .589-.076.848-.22.016.951.795 1.72 1.75 1.72s1.733-.769 1.75-1.719a1.754 1.754 0 002.364-.657c.477-.827.2-1.885-.615-2.374a1.751 1.751 0 00-.902-3.25c-.296 0-.589.076-.848.22a1.75 1.75 0 00-1.749-1.72z"></path><path fill="#868686" d="M43.842 26.248c-3.586 0-6.83 1.837-8.681 4.801a7.51 7.51 0 0 0-7.735 3.851 5.936 5.936 0 0 0-5.62 5.921c0 2.936 2.18 5.25 5.554 5.893 2.206.421 5.395.577 11.768.577 6.021 0 9.859-.302 12.019-.555 3.172-.372 5.303-2.591 5.303-5.522a5.493 5.493 0 0 0-2.359-4.52l.002-.194c-.001-5.653-4.599-10.252-10.251-10.252z"></path><path fill="#E6E6E6" d="M51.971 37.856a8.32 8.32 0 0 0 .121-1.357 8.248 8.248 0 1 0-15.897-3.088 5.498 5.498 0 0 0-7.479 3.619 3.872 3.872 0 0 0-.981-.138 3.929 3.929 0 0 0-3.929 3.929c0 2.17 1.744 3.512 3.929 3.929 2.185.417 5.518.542 11.393.542s9.655-.292 11.786-.542c2.131-.25 3.536-1.583 3.536-3.536a3.525 3.525 0 0 0-2.479-3.358z"></path><path fill="#FFF" d="M27.735 38.926c.341 0 .666.057.981.138a5.497 5.497 0 017.479-3.619 8.247 8.247 0 017.647-5.162c4.203 0 7.664 3.144 8.177 7.207a7.72 7.72 0 00.073-.992 8.248 8.248 0 10-15.897-3.088 5.498 5.498 0 00-7.479 3.619 3.872 3.872 0 00-.981-.138 3.929 3.929 0 00-3.929 3.929c0 .36.064.689.154 1.004.456-1.667 1.965-2.898 3.775-2.898zM35.924 55.456a.75.75 0 10.751-1.298l-1.473-.851 1.473-.851a.75.75 0 10-.75-1.298l-1.473.851v-1.701a.75.75 0 00-1.5 0v1.701l-1.473-.851a.75.75 0 00-.75 1.298l1.473.851-1.473.851a.75.75 0 10.751 1.298l1.473-.851v1.701a.75.75 0 001.5 0v-1.701l1.471.851zM48.886 54.157l-1.473-.851 1.473-.851a.75.75 0 10-.75-1.298l-1.473.851v-1.701a.75.75 0 00-1.5 0v1.701l-1.473-.851a.75.75 0 00-.75 1.298l1.473.851-1.473.851a.75.75 0 10.751 1.298l1.473-.851v1.701a.75.75 0 001.5 0v-1.701l1.473.851a.75.75 0 10.749-1.298z"></path></svg>